<?xml version="1.0" encoding="UTF-8"?>
<svg id="Layer_1" xmlns="http://www.w3.org/2000/svg" version="1.1" viewBox="0 0 288.29 73.4">
  <!-- Generator: Adobe Illustrator 29.5.0, SVG Export Plug-In . SVG Version: 2.1.0 Build 137)  -->
  <defs>
    <style>
      .st0 {
        fill: #f9f9f9;
      }
    </style>
  </defs>
  <g>
    <path class="st0" d="M258.56,2.14c4.22,1.6,7.29,4.36,7.88,9.52.05.41.06.82.06,1.23.03,7.08.02,14.17.02,21.25,0,.24,0-.16-.03.69-.06,1.46-.84,1.5-1.65,1.56-.88.07-1.94-.39-1.95-1.6-.02-2.41-.01-4.83-.01-7.24,0-4.77.02-9.54,0-14.31-.03-5.19-3.62-8.25-9.18-7.54-11.97,1.54-24.06,1.14-36.08-.04-5.4-.53-8.8,2.47-8.82,7.56-.02,6.83-.03,13.66,0,20.49,0,.58,0,1.05-.05,1.49-.06.74-1.2,1.35-1.84,1.4-.71.05-1.64-.42-1.7-1.28-.04-.51-.08-1.11-.08-1.7,0-6.6.03-13.19-.02-19.79-.04-5.56,2.07-9.69,7.43-11.65.37-.09.28-.1.55-.14h45c.27.02.36.05.5.09h-.03Z"/>
    <path class="st0" d="M192.56,53.32c13.06-4.91,25.56-2.8,37.75,3.04.9.43,1.79.9,2.66,1.4,2.35,1.36,4.69,1.34,7.05,0,4.85-2.73,9.9-4.98,15.41-5.98,7.71-1.39,15.44-2.09,23,.83.77.3,2.09.2,1.76,1.68-.3,1.36-1.71,2.52-2.92,2.29-2.43-.46-4.82-1.15-7.25-1.54-8.83-1.41-17.23.18-25.27,3.94-1.12.52-2.25,1.05-3.3,1.7-3.35,2.07-6.54,1.76-10.02.02-3.77-1.89-7.71-3.55-11.75-4.75-6.43-1.92-13.01-1.92-19.56-.31-.69.17-1.4.25-2.06.5-2.33.88-4.23.53-5.51-1.79v-1.06.02Z"/>
    <path class="st0" d="M216.49,71.35c-.62,0-1.6-.17-2.18-.38l-.87-.31c-4.39-1.56-6.67-4.81-7.44-9.26-.19-1.07-.1-2.1,1.15-2.4,1.26-.3,1.71.62,2.14,1.61.57,1.34,1.1,2.75,1.95,3.92,1.23,1.7,3.06,2.53,5.2,2.53,12.89,0,25.78.01,38.67,0,2.95,0,5.01-1.49,6.32-4.06.4-.78.7-1.62,1.03-2.44.4-.98.93-1.89,2.19-1.55,1.28.34,1.27,1.38,1.05,2.43-.94,4.53-3.26,7.89-7.86,9.34l-.81.26c-.53.17-1.43.31-1.99.31h-38.55,0Z"/>
    <path class="st0" d="M252.65,48.96c-.81.53-1.69-.57-1-1.24,3.58-3.51,8-5.81,13.26-6.74,3.32-.59,6.83-.23,10.25-.11,1.29.05,2.34.84,2.06,2.46-.24,1.38-1.29,2.15-2.87,1.83-8.14-1.65-15.35-.34-21.71,3.8h0Z"/>
    <path class="st0" d="M218.26,48.26c.98.57,1.95-.75,1.1-1.5-3.39-2.97-7.46-4.94-12.23-5.78-3.32-.59-6.83-.23-10.25-.11-1.29.05-2.34.84-2.06,2.46.24,1.38,1.29,2.15,2.87,1.83,7.65-1.55,14.49-.48,20.57,3.09h0Z"/>
    <g>
      <path class="st0" d="M221.28,32.88c-.88.73-2.18.79-3.03.02-.17-.15-.29-.3-.34-.48-.22-.73-.11-1.86.34-2.45,2.25-2.94,4.65-5.77,7.01-8.63,2.61-3.17,5.23-6.33,7.86-9.48.83-1,1.83-1.61,3.14-.91,1.07.57,1.32,1.55.99,2.64-.14.47-.5.89-.82,1.28-4.68,5.67-9.35,11.35-14.07,16.99-.31.37-.67.69-1.06,1.02h-.02Z"/>
      <path class="st0" d="M239.61,18.31c.77.76.9,1.96.34,2.89-.09.14-.17.27-.27.4-2.41,2.96-4.83,5.9-7.28,8.83-.97,1.15-2.34,1.35-3.31.46-1.06-.97-1.06-2.13-.19-3.21,2.47-3.05,4.94-6.12,7.55-9.05.51-.57,1.75-.88,2.53-.71.23.05.44.2.63.39Z"/>
      <path class="st0" d="M242.79,39.18c-.83.96-2.36,1.07-3.33.25-.77-.65-1-1.67-.36-2.51,2.61-3.43,5.41-6.73,8.26-9.98.79-.9,2.02-.77,2.92.11.89.88.95,1.94.15,2.92-2.52,3.08-5.05,6.15-7.62,9.19h0s0,.02,0,.02Z"/>
      <path class="st0" d="M232.57,40.75c-.86.71-2.17.62-2.98-.14-.16-.15-.28-.32-.32-.5-.18-.83-.05-1.99.44-2.64,1.84-2.47,3.88-4.78,5.85-7.15.55-.66,1.08-1.34,1.68-1.94.94-.95,2.03-1.1,3.06-.21.95.82,1.08,1.96.31,2.92-2.56,3.21-5.2,6.37-7.86,9.5-.05.06-.11.12-.17.17h0Z"/>
      <path class="st0" d="M224.2,39.36c.02,1.39-1.62,3.25-2.92,3.31-1.2.05-2.25-1.02-2.24-2.28.02-1.37,1.77-3.3,3.02-3.2,1.27.1,2.11.77,2.13,2.17h0Z"/>
      <path class="st0" d="M228.71,33.88c.02,1.43-1.59,3.26-2.9,3.31-1.22.04-2.26-1.01-2.24-2.28.02-1.31,1.83-3.25,3.04-3.24,1.15,0,2.09.99,2.11,2.22h0Z"/>
      <path class="st0" d="M237.25,40.44c1.16.16,1.97.83,2.01,2.2.04,1.43-1.67,3.22-3.03,3.18-1.37-.05-2.1-.8-2.13-2.16-.03-1.47,1.65-3.23,3.15-3.22h0Z"/>
      <path class="st0" d="M232.85,45.98c1.03,0,1.76.79,1.88,2.09.13,1.33-1.66,3.25-2.97,3.25s-2.12-.74-2.21-2.09c-.09-1.49,1.51-3.22,3.29-3.25h.01Z"/>
      <path class="st0" d="M229.44,43.98c0,1.27-1.66,3-3.04,2.95-1.36-.06-2.09-.83-2.12-2.17-.03-1.4,1.75-3.28,3.05-3.18s2.09.83,2.11,2.4h0Z"/>
      <path class="st0" d="M242.21,49.79c-.88.73-2.18.79-3.03.02-.17-.15-.29-.3-.34-.48-.22-.73-.11-1.86.34-2.45,2.25-2.94,4.65-5.77,7.01-8.63,2.61-3.17,5.23-6.33,7.86-9.48.83-1,1.83-1.61,3.14-.91,1.07.57,1.32,1.55.99,2.64-.14.47-.5.89-.82,1.28-4.68,5.67-9.35,11.35-14.07,16.99-.31.37-.67.69-1.06,1.02h-.02Z"/>
    </g>
  </g>
  <path class="st0" d="M14.04,32.05c-1.01,0-1.94-.25-2.77-.75s-1.48-1.22-1.95-2.16-.71-2.08-.71-3.41c0-1.98.55-3.52,1.64-4.62,1.09-1.1,2.57-1.65,4.42-1.65,1.36,0,2.47.28,3.32.83s1.27,1.25,1.27,2.09v9.68h-2.96v-9.68c-.07-.16-.25-.28-.53-.38s-.65-.14-1.1-.14c-1.01,0-1.78.32-2.3.94-.52.63-.77,1.61-.77,2.94,0,1.26.25,2.23.76,2.91s1.24,1.02,2.2,1.02h6.19v2.39h-6.72,0ZM11.97,17.67c-.42,0-.79-.16-1.12-.47-.32-.32-.49-.69-.49-1.13s.16-.84.47-1.17c.32-.32.69-.49,1.13-.49s.84.16,1.15.49c.31.32.47.71.47,1.17s-.16.81-.47,1.13c-.32.31-.7.47-1.15.47h0ZM16.06,17.67c-.44,0-.82-.16-1.14-.47-.32-.32-.48-.69-.48-1.13s.16-.84.48-1.17c.32-.32.7-.49,1.14-.49s.83.16,1.14.49c.3.32.46.71.46,1.17s-.15.81-.46,1.13c-.31.31-.69.47-1.14.47ZM20.76,32.05v-2.39c.21,0,.35.1.42.31s.1.5.1.87-.03.66-.1.88-.21.33-.42.33Z"/>
  <path class="st0" d="M20.76,32.05c-.19,0-.33-.11-.41-.33s-.12-.51-.12-.88.04-.66.12-.87c.08-.21.21-.31.41-.31v2.39ZM20.76,32.05v-2.39h1.05c.47,0,.85-.13,1.14-.39.29-.26.5-.6.64-1.01s.21-.82.21-1.22v-6.09c0-.42.12-.77.35-1.06s.62-.43,1.14-.43.88.14,1.12.43.35.64.35,1.06v6.09c0,.96-.21,1.82-.64,2.57s-1.01,1.35-1.74,1.78c-.74.44-1.59.66-2.57.66,0,0-1.05,0-1.05,0ZM23.25,37.48c-.42,0-.79-.16-1.12-.49-.32-.32-.48-.7-.48-1.14s.16-.84.47-1.15.69-.47,1.13-.47.84.16,1.15.47.47.7.47,1.15-.16.82-.47,1.14c-.32.32-.7.49-1.15.49ZM28.76,32.05c-.96,0-1.82-.22-2.56-.66s-1.33-1.03-1.76-1.78-.64-1.61-.64-2.57h2.96c0,.4.07.81.21,1.22s.36.75.67,1.01.68.39,1.12.39h1.18v2.39h-1.18ZM27.34,37.48c-.44,0-.82-.16-1.14-.49-.32-.32-.49-.7-.49-1.14s.16-.84.49-1.15c.32-.31.7-.47,1.14-.47s.83.16,1.14.47.46.7.46,1.15-.15.82-.46,1.14-.69.49-1.14.49ZM29.94,32.05v-2.39c.19,0,.33.1.41.31s.12.5.12.87-.04.66-.12.88-.21.33-.41.33Z"/>
  <path class="st0" d="M29.94,32.05c-.19,0-.33-.11-.41-.33s-.12-.51-.12-.88.04-.66.12-.87c.08-.21.21-.31.41-.31v2.39ZM29.94,32.05v-2.39h1.05c.47,0,.85-.13,1.14-.39s.5-.6.64-1.01.21-.82.21-1.22v-6.09c0-.42.12-.77.35-1.06s.62-.43,1.14-.43.88.14,1.12.43.35.64.35,1.06v6.09c0,.96-.21,1.82-.64,2.57s-1.01,1.35-1.74,1.78c-.74.44-1.59.66-2.57.66,0,0-1.05,0-1.05,0ZM34.5,37.61c-.51,0-.93-.17-1.27-.51s-.51-.75-.51-1.22.17-.88.51-1.22.76-.51,1.25-.51.88.17,1.22.51.51.75.51,1.22-.17.88-.51,1.22-.74.51-1.19.51h-.01ZM37.94,32.05c-.96,0-1.82-.22-2.56-.66s-1.33-1.03-1.76-1.78c-.43-.75-.64-1.61-.64-2.57h2.96c0,.4.07.81.21,1.22s.36.75.67,1.01c.31.26.68.39,1.12.39h1.18v2.39s-1.18,0-1.18,0ZM39.12,32.05v-2.39c.19,0,.33.1.41.31.08.21.12.5.12.87s-.04.66-.12.88c-.08.22-.21.33-.41.33Z"/>
  <path class="st0" d="M39.12,32.05c-.19,0-.33-.11-.41-.33-.08-.22-.12-.51-.12-.88s.04-.66.12-.87c.08-.21.21-.31.41-.31v2.39ZM39.12,32.05v-2.39h1.05c.47,0,.85-.13,1.14-.39s.5-.6.64-1.01.21-.82.21-1.22v-6.09c0-.42.12-.77.35-1.06s.62-.43,1.14-.43.88.14,1.12.43.35.64.35,1.06v6.09c0,.96-.21,1.82-.64,2.57s-1.01,1.35-1.74,1.78c-.74.44-1.59.66-2.57.66,0,0-1.05,0-1.05,0ZM41.61,37.48c-.42,0-.79-.16-1.12-.49-.32-.32-.48-.7-.48-1.14s.16-.84.47-1.15.69-.47,1.13-.47.84.16,1.15.47.47.7.47,1.15-.16.82-.47,1.14c-.32.32-.7.49-1.15.49ZM47.12,32.05c-.96,0-1.82-.22-2.56-.66s-1.33-1.03-1.76-1.78c-.43-.75-.64-1.61-.64-2.57h2.96c0,.4.07.81.21,1.22s.36.75.67,1.01c.31.26.68.39,1.12.39h1.18v2.39s-1.18,0-1.18,0ZM45.71,37.48c-.44,0-.82-.16-1.14-.49-.32-.32-.49-.7-.49-1.14s.16-.84.49-1.15c.32-.31.7-.47,1.14-.47s.83.16,1.14.47.46.7.46,1.15-.15.82-.46,1.14c-.31.32-.69.49-1.14.49ZM48.3,32.05v-2.39c.19,0,.33.1.41.31.08.21.12.5.12.87s-.04.66-.12.88c-.08.22-.21.33-.41.33Z"/>
  <path class="st0" d="M48.3,32.05c-.19,0-.33-.11-.41-.33-.08-.22-.12-.51-.12-.88s.04-.66.12-.87c.08-.21.21-.31.41-.31v2.39ZM48.3,32.05v-2.39h1.05c.47,0,.85-.13,1.14-.39s.5-.6.64-1.01.21-.82.21-1.22v-8.45c0-.59-.08-1.06-.24-1.4s-.34-.6-.54-.77-.38-.31-.54-.39c.04-.12.12-.28.26-.49.14-.2.35-.38.63-.55.28-.17.62-.25,1.02-.25.45,0,.86.11,1.21.34s.63.57.84,1.02c.21.45.32,1.01.32,1.68v9.26c0,.96-.21,1.82-.64,2.57s-1.01,1.35-1.74,1.78c-.74.44-1.59.66-2.57.66,0,0-1.05,0-1.05,0ZM56.3,32.05c-.96,0-1.82-.22-2.56-.66s-1.33-1.03-1.76-1.78c-.43-.75-.64-1.61-.64-2.57h2.96c0,.4.07.81.21,1.22s.36.75.67,1.01c.31.26.68.39,1.12.39h1.18v2.39s-1.18,0-1.18,0ZM57.49,32.05v-2.39c.19,0,.33.1.41.31.08.21.12.5.12.87s-.04.66-.12.88c-.08.22-.21.33-.41.33Z"/>
  <path class="st0" d="M57.48,32.05c-.19,0-.33-.11-.41-.33-.08-.22-.12-.51-.12-.88s.04-.66.12-.87c.08-.21.21-.31.41-.31v2.39ZM57.48,32.05v-2.39h1.05c.47,0,.85-.13,1.14-.39s.5-.6.64-1.01.21-.82.21-1.22v-8.45c0-.59-.08-1.06-.24-1.4s-.34-.6-.54-.77-.38-.31-.54-.39c.04-.12.12-.28.26-.49.14-.2.35-.38.63-.55.28-.17.62-.25,1.02-.25.45,0,.86.11,1.21.34s.63.57.84,1.02c.21.45.32,1.01.32,1.68v9.26c0,.96-.21,1.82-.64,2.57s-1.01,1.35-1.74,1.78c-.74.44-1.59.66-2.57.66,0,0-1.05,0-1.05,0Z"/>
  <path class="st0" d="M68.35,32.05c-.61,0-1.01-.18-1.19-.54s-.28-.76-.28-1.19v-11.73c0-.59-.08-1.06-.24-1.4-.16-.34-.34-.6-.55-.77-.21-.17-.39-.31-.53-.39.04-.12.12-.28.26-.49.14-.2.35-.38.63-.55s.63-.25,1.05-.25.83.11,1.18.34c.35.23.63.57.84,1.02.21.45.31,1.01.31,1.68v12.57c0,.42-.1.81-.29,1.17s-.6.54-1.21.54h.02Z"/>
  <path class="st0" d="M81.25,32.05c-1.01,0-1.94-.25-2.77-.75-.83-.5-1.48-1.22-1.95-2.16s-.71-2.08-.71-3.41c0-1.98.55-3.52,1.64-4.62,1.09-1.1,2.57-1.65,4.42-1.65,1.36,0,2.47.28,3.32.83s1.27,1.25,1.27,2.09v9.68h-2.96v-9.68c-.07-.16-.25-.28-.53-.38-.28-.1-.65-.14-1.1-.14-1.01,0-1.78.32-2.3.94-.52.63-.77,1.61-.77,2.94,0,1.26.25,2.23.76,2.91s1.24,1.02,2.2,1.02h6.19v2.39h-6.72,0ZM79.18,17.67c-.42,0-.79-.16-1.12-.47-.32-.32-.48-.69-.48-1.13s.16-.84.47-1.17c.31-.32.69-.49,1.13-.49s.84.16,1.15.49.47.71.47,1.17-.16.81-.47,1.13c-.32.31-.7.47-1.15.47ZM83.27,17.67c-.44,0-.82-.16-1.14-.47-.32-.32-.49-.69-.49-1.13s.16-.84.49-1.17c.32-.32.7-.49,1.14-.49s.83.16,1.14.49.46.71.46,1.17-.15.81-.46,1.13c-.31.31-.69.47-1.14.47ZM87.97,32.05v-2.39c.21,0,.35.1.42.31s.11.5.11.87-.04.66-.11.88-.21.33-.42.33Z"/>
  <path class="st0" d="M87.97,32.05c-.19,0-.33-.11-.41-.33s-.12-.51-.12-.88.04-.66.12-.87c.08-.21.21-.31.41-.31v2.39ZM87.97,32.05v-2.39h1.05c.47,0,.85-.13,1.14-.39s.5-.6.64-1.01.21-.82.21-1.22v-6.09c0-.42.12-.77.35-1.06s.62-.43,1.14-.43.88.14,1.12.43.35.64.35,1.06v6.09c0,.96-.21,1.82-.64,2.57s-1.01,1.35-1.74,1.78c-.74.44-1.59.66-2.57.66,0,0-1.05,0-1.05,0ZM90.46,37.48c-.42,0-.79-.16-1.12-.49s-.48-.7-.48-1.14.16-.84.47-1.15.69-.47,1.13-.47.84.16,1.15.47c.32.31.47.7.47,1.15s-.16.82-.47,1.14c-.32.32-.7.49-1.15.49ZM95.97,32.05c-.96,0-1.82-.22-2.56-.66s-1.33-1.03-1.76-1.78-.64-1.61-.64-2.57h2.96c0,.4.07.81.21,1.22s.36.75.67,1.01.68.39,1.12.39h1.18v2.39h-1.18ZM94.55,37.48c-.44,0-.82-.16-1.14-.49-.32-.32-.49-.7-.49-1.14s.16-.84.49-1.15c.32-.31.7-.47,1.14-.47s.83.16,1.14.47.46.7.46,1.15-.15.82-.46,1.14-.69.49-1.14.49ZM97.15,32.05v-2.39c.19,0,.33.1.41.31s.12.5.12.87-.04.66-.12.88-.21.33-.41.33Z"/>
  <path class="st0" d="M97.15,32.05c-.19,0-.33-.11-.41-.33s-.12-.51-.12-.88.04-.66.12-.87c.08-.21.21-.31.41-.31v2.39ZM97.15,32.05v-2.39h6.19c.96,0,1.7-.34,2.22-1.02.51-.68.77-1.65.77-2.91,0-1.33-.26-2.31-.79-2.94-.52-.63-1.29-.94-2.31-.94-.46,0-.82.05-1.09.14s-.45.22-.54.38v9.68h-2.96v-9.68c0-.84.43-1.53,1.29-2.09.86-.55,1.96-.83,3.31-.83,1.85,0,3.33.55,4.42,1.65s1.64,2.64,1.64,4.62c0,1.33-.24,2.47-.71,3.41s-1.12,1.67-1.94,2.16c-.82.5-1.75.75-2.78.75h-6.72ZM111.29,32.05c-.96,0-1.82-.22-2.57-.66s-1.34-1.03-1.76-1.78-.63-1.61-.63-2.57v-1.23h2.96v1.23c0,.4.07.81.21,1.22s.36.75.66,1.01.67.39,1.13.39h1.15v2.39h-1.15ZM112.44,32.05v-2.39c.21,0,.35.1.42.31s.11.5.11.87-.04.66-.11.88-.21.33-.42.33Z"/>
  <path class="st0" d="M112.44,32.05c-.19,0-.33-.11-.41-.33s-.12-.51-.12-.88.04-.66.12-.87c.08-.21.21-.31.41-.31v2.39ZM112.44,32.05v-2.39h2.15c.33,0,.63-.09.88-.26s.47-.4.64-.68.32-.6.43-.97.19-.76.24-1.17c.04-.41.07-.82.07-1.22,0-.7-.07-1.33-.2-1.89s-.34-1.08-.62-1.55c-.28-.47-.66-.91-1.15-1.31.04-.14.12-.3.26-.49s.34-.34.59-.47.56-.2.91-.2c.56,0,1.04.18,1.45.52s.74.81.98,1.39.43,1.22.55,1.92.18,1.41.18,2.13c0,2.06-.46,3.69-1.38,4.87s-2.2,1.77-3.84,1.77h-2.15,0ZM114.62,37.48c-.42,0-.79-.16-1.12-.49s-.48-.7-.48-1.14.16-.84.47-1.15.69-.47,1.13-.47.84.16,1.15.47c.32.31.47.7.47,1.15s-.16.82-.47,1.14-.7.49-1.15.49ZM118.72,37.48c-.44,0-.82-.16-1.14-.49-.32-.32-.49-.7-.49-1.14s.16-.84.49-1.15c.32-.31.7-.47,1.14-.47s.83.16,1.14.47.46.7.46,1.15-.15.82-.46,1.14-.69.49-1.14.49Z"/>
  <path class="st0" d="M123.46,32.05c-.35,0-.64-.1-.88-.29s-.35-.5-.35-.92.12-.7.35-.89c.24-.19.53-.29.88-.29h2.91c.98,0,1.72-.35,2.23-1.05.51-.7.76-1.67.76-2.91,0-.91-.13-1.66-.38-2.24-.25-.59-.59-1.03-1.01-1.33-.42-.3-.88-.45-1.36-.47l.89-.05c-.33,0-.67.07-1,.22s-.62.39-.85.73c-.24.34-.35.82-.35,1.43-.16.05-.38.1-.67.13-.29.04-.56.04-.8,0-.35-.04-.68-.19-.98-.47s-.46-.7-.46-1.26c0-.52.14-.98.43-1.36.29-.38.66-.69,1.1-.92.45-.23.91-.39,1.4-.5s.94-.16,1.34-.16c.61,0,1.25.12,1.9.37.66.25,1.27.63,1.85,1.15s1.05,1.18,1.4,1.97c.36.79.54,1.74.54,2.86,0,1.4-.28,2.56-.85,3.49s-1.3,1.62-2.2,2.07c-.9.46-1.88.68-2.92.68h-2.92Z"/>
  <path class="st0" d="M140.62,32.05c-.96,0-1.81-.22-2.56-.66s-1.33-1.03-1.76-1.78-.64-1.61-.64-2.57v-8.45c0-.59-.08-1.06-.24-1.4s-.34-.6-.55-.77-.39-.31-.53-.39c.04-.12.12-.28.26-.49.14-.2.35-.38.63-.55s.63-.25,1.05-.25.83.11,1.18.34c.35.23.63.57.84,1.02.21.45.31,1.01.31,1.68v9.26c0,.4.07.81.21,1.22s.36.75.66,1.01.67.39,1.13.39h.73v2.39h-.73,0ZM141.36,32.05v-2.39c.21,0,.35.1.42.31.07.21.11.5.11.87s-.04.66-.11.88-.21.33-.42.33Z"/>
  <path class="st0" d="M141.36,32.05c-.19,0-.33-.11-.41-.33s-.12-.51-.12-.88.04-.66.12-.87c.08-.21.21-.31.41-.31v2.39ZM141.36,32.05v-2.39h10.07c.42,0,.77-.15,1.05-.46s.42-.77.42-1.4-.14-1.1-.42-1.42-.63-.47-1.05-.47h-4.17c-1.01,0-1.94-.19-2.77-.58-.83-.38-1.49-.91-1.98-1.57-.49-.66-.73-1.42-.73-2.26s.24-1.62.73-2.28c.49-.66,1.15-1.19,1.98-1.57s1.75-.58,2.77-.58h5.69c.65,0,1.15-.1,1.52-.3.37-.2.65-.37.84-.51.05.28.04.6-.03.96-.07.36-.2.71-.39,1.06s-.45.64-.76.87c-.32.23-.71.34-1.18.34h-5.69c-.73,0-1.33.19-1.8.58s-.69.87-.69,1.44.23,1.06.69,1.44,1.06.58,1.8.58h4.49c.82,0,1.54.18,2.16.55.62.37,1.11.88,1.46,1.52.35.65.52,1.38.52,2.2s-.18,1.55-.52,2.19c-.35.64-.84,1.14-1.46,1.51-.62.37-1.34.55-2.16.55h-10.39Z"/>
  <path class="st0" d="M159.43,32.05c-.3,0-.55-.11-.75-.33s-.3-.51-.3-.88.1-.63.3-.85c.2-.22.46-.33.77-.33h8.42c.46,0,.83-.13,1.13-.39s.52-.6.66-1.01.21-.82.21-1.22v-8.45c0-.59-.08-1.06-.24-1.4s-.34-.6-.55-.77-.39-.31-.53-.39c.04-.12.12-.28.26-.49.14-.2.35-.38.63-.55s.62-.25,1.02-.25c.46,0,.86.11,1.21.34.35.23.63.57.84,1.02.21.45.31,1.01.31,1.68v9.26c0,.96-.21,1.82-.64,2.57s-1.01,1.35-1.75,1.78-1.59.66-2.57.66h-8.45.02ZM161.06,17.25c-.19-.12-.32-.28-.39-.47s-.08-.38-.03-.55.18-.32.38-.43c.2-.11.48-.15.83-.12-.21-.14-.43-.38-.66-.74-.23-.35-.34-.75-.34-1.21,0-.4.1-.8.3-1.19s.51-.71.93-.96.94-.37,1.58-.37c.42,0,.76.06,1.01.17s.43.26.54.43.16.38.16.63c0,.32-.08.54-.24.67s-.34.19-.54.18-.39-.05-.56-.12c.02-.26-.05-.5-.21-.71s-.37-.32-.63-.34c-.12.09-.26.25-.41.49-.15.24-.22.53-.22.88,0,.4.09.73.28,1,.18.26.42.46.72.59s.6.2.92.2c.21,0,.4-.02.56-.05.17-.03.3-.06.41-.08.26,0,.43.11.51.31.08.21.08.42,0,.62-.07.2-.18.31-.34.33-.21.02-.5.04-.87.07-.37.03-.76.06-1.17.11-.41.04-.81.1-1.19.16-.39.06-.7.14-.96.22-.25.09-.38.18-.38.29h0ZM162.63,29.66v-7.37c0-.59-.08-1.06-.24-1.4s-.34-.6-.54-.77-.38-.31-.54-.39c.04-.12.13-.28.28-.49.15-.2.36-.38.63-.55s.62-.25,1.04-.25.84.11,1.19.34c.36.23.64.57.85,1.02s.31,1.01.31,1.68v8.19h-2.99,0Z"/>
  <path class="st0" d="M177.82,32.05c-.61,0-1.01-.18-1.19-.54-.18-.36-.28-.76-.28-1.19v-11.73c0-.59-.08-1.06-.24-1.4s-.34-.6-.55-.77-.39-.31-.53-.39c.04-.12.12-.28.26-.49.14-.2.35-.38.63-.55s.63-.25,1.05-.25.83.11,1.18.34c.35.23.63.57.84,1.02.21.45.31,1.01.31,1.68v12.57c0,.42-.1.81-.29,1.17-.19.36-.6.54-1.21.54h.02Z"/>
  <path class="st0" d="M12.17,57.01c-.8,0-1.51-.19-2.13-.58-.62-.39-1.11-.94-1.46-1.67s-.53-1.61-.53-2.64c0-1.53.42-2.72,1.25-3.57s1.94-1.28,3.34-1.28c1.03,0,1.86.21,2.51.63s.97.96.97,1.62v7.48h-1.82v-7.48c0-.26-.13-.46-.39-.61-.27-.15-.69-.22-1.27-.22-.89,0-1.58.29-2.05.86s-.71,1.43-.71,2.57.25,1.98.75,2.58c.5.59,1.22.89,2.15.89h4.32v1.42s-4.93,0-4.93,0ZM10.72,45.96c-.31,0-.58-.12-.81-.35-.23-.23-.34-.5-.34-.81s.11-.6.34-.83.5-.35.81-.35.6.12.82.35.34.51.34.83-.11.58-.34.81c-.22.23-.5.35-.82.35ZM13.68,45.96c-.31,0-.58-.12-.81-.35-.23-.23-.34-.5-.34-.81s.11-.6.34-.83.5-.35.81-.35.6.12.82.35c.22.23.33.51.33.83s-.11.58-.33.81-.5.35-.82.35ZM17.1,57.01v-1.42c.16,0,.27.06.32.18s.08.3.08.53-.03.39-.08.52-.16.19-.32.19Z"/>
  <path class="st0" d="M17.1,57.01c-.16,0-.27-.06-.32-.19-.05-.13-.08-.3-.08-.52s.03-.41.08-.53.16-.18.32-.18v1.42ZM17.1,57.01v-1.42h.51c.42,0,.76-.12,1.02-.36s.46-.55.59-.91c.13-.36.19-.74.19-1.12v-5.03c0-.34.09-.57.26-.7.18-.13.39-.19.65-.19s.47.06.65.19c.18.13.26.36.26.7v5.03c0,.73-.16,1.38-.47,1.96-.31.58-.74,1.03-1.28,1.36s-1.17.5-1.89.5h-.51.02ZM18.85,60.96c-.31,0-.58-.12-.81-.35s-.35-.5-.35-.81.12-.6.35-.83c.23-.23.5-.35.81-.35s.6.12.82.35.34.51.34.83-.11.58-.34.81-.5.35-.82.35ZM23.04,57.01c-.7,0-1.33-.17-1.88-.5s-.98-.78-1.29-1.36c-.31-.57-.47-1.23-.47-1.96h1.82c0,.38.06.75.19,1.12s.33.67.6.91.61.36,1.01.36h.73v1.42h-.73.02ZM21.81,60.96c-.31,0-.58-.12-.81-.35s-.34-.5-.34-.81.11-.6.34-.83c.23-.23.5-.35.81-.35s.6.12.82.35.33.51.33.83-.11.58-.33.81-.5.35-.82.35ZM23.77,57.01v-1.42c.16,0,.27.06.32.18s.08.3.08.53-.03.39-.08.52-.16.19-.32.19Z"/>
  <path class="st0" d="M23.77,57.01c-.16,0-.27-.06-.32-.19-.05-.13-.08-.3-.08-.52s.03-.41.08-.53.16-.18.32-.18v1.42ZM23.77,57.01v-1.42h1.36c.43,0,.79-.1,1.07-.3.28-.2.5-.46.66-.77s.27-.64.34-.97c.07-.34.12-.65.13-.92s.02-.48.02-.6c0-.36-.03-.8-.1-1.3s-.22-1.02-.46-1.56-.62-1.03-1.17-1.48c.07-.07.15-.13.25-.19.1-.06.22-.11.35-.15.14-.04.29-.06.47-.06.47,0,.87.16,1.19.47s.57.71.76,1.21.32,1.02.41,1.57c.08.55.12,1.07.12,1.54,0,1.55-.36,2.77-1.07,3.64-.72.87-1.71,1.31-2.98,1.31h-1.36v-.02ZM25.29,45.96c-.31,0-.58-.12-.81-.35s-.34-.5-.34-.81.11-.6.34-.83.5-.35.81-.35.6.12.82.35.33.51.33.83-.11.58-.33.81-.5.35-.82.35ZM28.26,45.96c-.31,0-.58-.12-.81-.35s-.34-.5-.34-.81.11-.6.34-.83.5-.35.81-.35.6.12.82.35.34.51.34.83-.11.58-.34.81c-.22.23-.5.35-.82.35Z"/>
  <path class="st0" d="M35.35,57.01c-.7,0-1.33-.17-1.88-.5s-.98-.78-1.29-1.36c-.31-.57-.47-1.23-.47-1.96v-6.57c0-.42-.06-.8-.17-1.14-.12-.34-.26-.62-.44-.85s-.34-.4-.51-.51c.05-.07.14-.14.27-.22.13-.08.29-.15.48-.2s.39-.08.59-.08c.26,0,.51.06.75.19.24.13.45.35.61.68.16.32.24.78.24,1.38v7.32c0,.38.06.75.19,1.12.13.36.33.67.6.91.27.24.61.36,1.01.36h.63v1.42h-.63.02ZM35.98,57.01v-1.42c.16,0,.27.06.32.18s.08.3.08.53-.03.39-.08.52c-.05.13-.16.19-.32.19Z"/>
  <path class="st0" d="M35.97,57.01c-.16,0-.27-.06-.32-.19-.05-.13-.08-.3-.08-.52s.03-.41.08-.53c.05-.12.16-.18.32-.18v1.42ZM35.97,57.01v-1.42h4.32c.93,0,1.65-.3,2.15-.89s.75-1.45.75-2.58-.24-1.99-.71-2.57c-.47-.58-1.16-.86-2.05-.86-.58,0-1,.07-1.27.22-.26.15-.4.35-.4.61v7.48h-1.82v-7.48c0-.66.32-1.2.97-1.62s1.49-.63,2.52-.63c1.41,0,2.52.43,3.35,1.28s1.24,2.04,1.24,3.57c0,1.03-.18,1.91-.53,2.64s-.84,1.29-1.46,1.67c-.62.39-1.33.58-2.13.58,0,0-4.93,0-4.93,0Z"/>
  <path class="st0" d="M50.85,57.01c-.8,0-1.51-.19-2.13-.58s-1.11-.94-1.46-1.67-.53-1.61-.53-2.64c0-1.53.42-2.72,1.25-3.57s1.94-1.28,3.34-1.28c1.03,0,1.86.21,2.51.63s.97.96.97,1.62v7.48h-1.82v-7.48c0-.26-.13-.46-.39-.61s-.69-.22-1.27-.22c-.89,0-1.58.29-2.05.86-.47.57-.71,1.43-.71,2.57s.25,1.98.75,2.58c.5.59,1.22.89,2.15.89h3.35v1.42h-3.96ZM52.33,61.65c-.18,0-.33-.02-.47-.06s-.25-.09-.35-.16-.19-.13-.25-.18c.54-.46.93-.95,1.17-1.46.24-.51.39-1.02.46-1.51.07-.49.1-.92.1-1.27v-1.42h1.82v1.42c0,.47-.04.98-.12,1.52-.08.54-.22,1.05-.41,1.52s-.44.86-.76,1.16-.71.45-1.19.45h0ZM54.81,57.01v-1.42h1.32v1.42h-1.32ZM56.13,57.01v-1.42c.16,0,.27.06.32.18s.08.3.08.53-.03.39-.08.52c-.05.13-.16.19-.32.19Z"/>
  <path class="st0" d="M56.12,57.01c-.16,0-.27-.06-.32-.19-.05-.13-.08-.3-.08-.52s.03-.41.08-.53c.05-.12.16-.18.32-.18v1.42ZM56.12,57.01v-1.42h.51c.42,0,.76-.12,1.02-.36.26-.24.46-.55.59-.91s.19-.74.19-1.12v-6.57c0-.42-.06-.8-.17-1.14-.11-.34-.26-.62-.44-.85s-.34-.4-.51-.51c.05-.07.15-.14.27-.22.13-.08.28-.15.47-.2s.38-.08.58-.08c.26,0,.51.06.76.19.25.13.46.35.62.68.16.32.24.78.24,1.38v7.32c0,.73-.16,1.38-.47,1.96-.31.58-.74,1.03-1.28,1.36s-1.17.5-1.89.5h-.51.02ZM62.07,57.01c-.7,0-1.33-.17-1.88-.5s-.98-.78-1.29-1.36c-.31-.57-.47-1.23-.47-1.96h1.82c0,.38.06.75.19,1.12s.33.67.6.91c.27.24.61.36,1.01.36h.73v1.42h-.73.02ZM62.8,57.01v-1.42c.16,0,.27.06.32.18s.08.3.08.53-.03.39-.08.52c-.05.13-.16.19-.32.19Z"/>
  <path class="st0" d="M62.8,57.01c-.16,0-.27-.06-.32-.19-.05-.13-.08-.3-.08-.52s.03-.41.08-.53c.05-.12.16-.18.32-.18v1.42ZM62.8,57.01v-1.42h3.49c.82,0,1.61-.12,2.36-.37s1.42-.59,2.02-1.01c.59-.43,1.06-.91,1.41-1.45.35-.54.52-1.1.52-1.68,0-.76-.3-1.34-.89-1.75-.6-.41-1.44-.62-2.53-.62s-1.94.21-2.53.62c-.6.41-.89,1-.89,1.75,0,.58.17,1.14.52,1.68.34.54.81,1.02,1.41,1.45.59.43,1.27.76,2.03,1.01s1.54.37,2.35.37h3.49v1.42h-3.49c-.93,0-1.88-.15-2.84-.45s-1.84-.71-2.64-1.25-1.44-1.16-1.93-1.89c-.49-.72-.73-1.51-.73-2.36,0-.68.16-1.25.47-1.73s.73-.87,1.25-1.18c.52-.3,1.09-.53,1.7-.67s1.23-.21,1.84-.21,1.22.07,1.84.21c.61.14,1.18.36,1.69.66s.93.69,1.25,1.17.48,1.06.48,1.75c0,.85-.24,1.64-.72,2.36s-1.12,1.35-1.92,1.89-1.68.95-2.64,1.25-1.91.45-2.86.45h-3.51ZM75.53,57.01v-1.42c.16,0,.27.06.32.18s.08.3.08.53-.03.39-.08.52-.16.19-.32.19Z"/>
  <path class="st0" d="M75.53,57.01c-.16,0-.27-.06-.32-.19-.05-.13-.08-.3-.08-.52s.03-.41.08-.53.16-.18.32-.18v1.42ZM75.53,57.01v-1.42h4.32c.93,0,1.65-.3,2.15-.89s.75-1.45.75-2.58-.24-1.99-.71-2.57c-.47-.58-1.16-.86-2.05-.86-.58,0-1,.07-1.27.22-.26.15-.4.35-.4.61v7.48h-1.82v-7.48c0-.66.32-1.2.97-1.62s1.49-.63,2.52-.63c1.41,0,2.52.43,3.35,1.28s1.24,2.04,1.24,3.57c0,1.03-.18,1.91-.53,2.64s-.84,1.29-1.46,1.67c-.62.39-1.33.58-2.13.58,0,0-4.93,0-4.93,0ZM86.38,57.01c-.7,0-1.33-.17-1.88-.5-.55-.33-.98-.78-1.29-1.36-.31-.57-.47-1.23-.47-1.96v-1.03h1.82v1.03c0,.38.06.75.19,1.12.13.36.32.67.59.91.26.24.6.36,1.02.36h.73v1.42h-.73.02ZM87.11,57.01v-1.42c.16,0,.27.06.32.18s.08.3.08.53-.03.39-.08.52-.16.19-.32.19Z"/>
  <path class="st0" d="M87.11,57.01c-.16,0-.27-.06-.32-.19-.05-.13-.08-.3-.08-.52s.03-.41.08-.53.16-.18.32-.18v1.42ZM87.11,57.01v-1.42h.51c.42,0,.76-.12,1.02-.36.26-.24.46-.55.59-.91s.19-.74.19-1.12v-6.57c0-.42-.06-.8-.17-1.14s-.26-.62-.44-.85-.34-.4-.51-.51c.05-.07.15-.14.27-.22.13-.08.28-.15.47-.2s.38-.08.58-.08c.26,0,.51.06.76.19.25.13.46.35.62.68.16.32.24.78.24,1.38v7.32c0,.73-.16,1.38-.47,1.96-.31.58-.74,1.03-1.28,1.36s-1.17.5-1.89.5h-.51.02Z"/>
  <path class="st0" d="M94.67,57.01c-.43,0-.69-.13-.77-.39-.08-.26-.12-.56-.12-.91v-9.08c0-.42-.06-.8-.17-1.14-.12-.34-.26-.62-.44-.85s-.34-.4-.51-.51c.05-.07.14-.14.27-.22s.29-.15.48-.2.39-.08.59-.08c.26,0,.51.06.75.19.24.13.45.35.61.68.16.32.24.78.24,1.38v9.84c0,.35-.05.66-.14.91-.1.26-.36.39-.79.39h0Z"/>
  <path class="st0" d="M101.13,57.01c-.8,0-1.51-.19-2.13-.58s-1.11-.94-1.46-1.67-.53-1.61-.53-2.64c0-1.53.42-2.72,1.25-3.57s1.94-1.28,3.34-1.28c1.03,0,1.86.21,2.51.63s.97.96.97,1.62v7.48h-1.82v-7.48c0-.26-.13-.46-.39-.61s-.69-.22-1.27-.22c-.89,0-1.58.29-2.05.86s-.71,1.43-.71,2.57.25,1.98.75,2.58c.5.59,1.22.89,2.15.89h3.35v1.42h-3.96ZM102.61,61.65c-.18,0-.33-.02-.47-.06s-.25-.09-.35-.16-.19-.13-.25-.18c.54-.46.93-.95,1.17-1.46s.39-1.02.46-1.51c.07-.49.1-.92.1-1.27v-1.42h1.82v1.42c0,.47-.04.98-.12,1.52s-.22,1.05-.41,1.52-.44.86-.76,1.16-.71.45-1.19.45h0Z"/>
  <path class="st0" d="M110.95,57.01c-1.27,0-2.27-.44-2.98-1.31-.72-.87-1.08-2.09-1.08-3.64,0-.47.04-.99.12-1.54s.22-1.08.41-1.57c.19-.49.44-.9.76-1.21.32-.31.71-.47,1.19-.47.18,0,.33.02.47.06.13.04.25.09.35.15s.19.12.25.19c-.53.45-.91.94-1.16,1.48s-.4,1.06-.47,1.56-.1.93-.1,1.3c0,.12,0,.32.02.6.01.28.06.58.13.92.07.34.19.66.35.97.15.31.37.57.66.77.28.2.64.3,1.08.3h4.77c.42,0,.76-.12,1.02-.36.26-.24.46-.55.59-.91s.19-.74.19-1.12v-3.95c0-.34.09-.57.26-.7.18-.13.39-.19.65-.19s.47.06.65.19c.18.13.26.36.26.7v3.95c0,.73-.16,1.38-.47,1.96-.31.58-.74,1.03-1.28,1.36s-1.17.5-1.89.5h-4.77.02ZM111.66,46.87c-.31,0-.58-.12-.81-.35-.23-.23-.34-.5-.34-.81s.11-.6.34-.83.5-.35.81-.35.6.12.82.35.33.51.33.83-.11.58-.33.81-.5.35-.82.35ZM114.62,46.87c-.31,0-.58-.12-.81-.35-.23-.23-.35-.5-.35-.81s.12-.6.35-.83c.23-.23.5-.35.81-.35s.6.12.82.35.34.51.34.83-.11.58-.34.81c-.22.23-.5.35-.82.35Z"/>
  <path class="st0" d="M121.33,57.01c-.22,0-.36-.08-.45-.24-.08-.16-.12-.32-.12-.47s.04-.3.12-.47c.08-.16.23-.24.45-.24h6.55c.42,0,.76-.12,1.02-.36.26-.24.46-.55.59-.91.13-.36.19-.74.19-1.12v-6.57c0-.42-.06-.8-.17-1.14-.12-.34-.26-.62-.44-.85-.18-.23-.35-.4-.51-.51.05-.07.14-.14.27-.22s.28-.15.47-.2c.18-.05.37-.08.58-.08.26,0,.51.06.76.19.25.13.46.35.62.68.16.32.24.78.24,1.38v7.32c0,.73-.16,1.38-.47,1.96-.31.58-.74,1.03-1.28,1.36s-1.17.5-1.89.5h-6.55.02ZM124.11,55.59v-6.1c0-.42-.06-.8-.17-1.13-.12-.34-.26-.62-.44-.85s-.35-.4-.51-.51c.05-.07.14-.14.27-.22s.28-.15.47-.2.37-.08.58-.08c.26,0,.51.06.76.19.25.13.46.35.62.68.16.32.24.78.24,1.38v6.85h-1.82Z"/>
  <path class="st0" d="M137.69,57.01c-.7,0-1.33-.17-1.88-.5s-.98-.78-1.29-1.36c-.31-.57-.47-1.23-.47-1.96v-6.57c0-.42-.06-.8-.17-1.14-.12-.34-.26-.62-.44-.85-.18-.23-.34-.4-.51-.51.05-.07.14-.14.27-.22s.29-.15.48-.2.39-.08.59-.08c.26,0,.51.06.75.19.24.13.45.35.61.68.16.32.24.78.24,1.38v7.32c0,.38.06.75.19,1.12.13.36.33.67.6.91s.61.36,1.01.36h.63v1.42h-.63.02ZM138.31,57.01v-1.42c.16,0,.27.06.32.18s.08.3.08.53-.03.39-.08.52-.16.19-.32.19Z"/>
  <path class="st0" d="M138.31,57.01c-.16,0-.27-.06-.32-.19-.05-.13-.08-.3-.08-.52s.03-.41.08-.53.16-.18.32-.18v1.42ZM138.31,57.01v-1.42h10.59c.55,0,.99-.22,1.32-.67.32-.45.49-1.18.49-2.21,0-1.43-.32-2.46-.96-3.08s-1.51-.93-2.6-.93c-.87,0-1.6.16-2.19.49-.6.32-1.08.74-1.46,1.26-.38.51-.69,1.06-.92,1.65-.24.59-.44,1.15-.6,1.67l-.83-.41c.12-.41.25-.88.4-1.41.14-.53.34-1.07.58-1.61s.57-1.04.99-1.51c.42-.47.95-.84,1.6-1.12.65-.28,1.46-.43,2.43-.43,1.7,0,3.03.47,3.97,1.42.95.95,1.42,2.29,1.42,4.02,0,1.37-.32,2.42-.94,3.17-.63.75-1.52,1.13-2.69,1.13h-10.6ZM140.14,57.01v-6.35c0-.38-.11-.74-.34-1.1-.22-.35-.45-.61-.68-.79.11-.09.27-.19.49-.29.22-.1.45-.15.71-.15.16,0,.34.03.53.1s.37.18.54.35.31.39.42.69.16.68.16,1.16v6.39h-1.83ZM154.33,57.01c-.7,0-1.33-.17-1.88-.5s-.98-.78-1.29-1.36c-.31-.57-.47-1.23-.47-1.96l1.82-.51v.51c0,.38.06.75.19,1.12s.33.67.6.91.61.36,1.01.36h.73v1.42h-.73.02ZM155.07,57.01v-1.42c.16,0,.27.06.32.18s.08.3.08.53-.03.39-.08.52-.16.19-.32.19Z"/>
  <path class="st0" d="M155.06,57.01c-.16,0-.27-.06-.32-.19-.05-.13-.08-.3-.08-.52s.03-.41.08-.53.16-.18.32-.18v1.42ZM155.06,57.01v-1.42h1.36c.43,0,.79-.1,1.07-.3.28-.2.5-.46.66-.77s.27-.64.34-.97c.07-.34.12-.65.13-.92s.02-.48.02-.6c0-.36-.03-.8-.1-1.3s-.22-1.02-.46-1.56-.62-1.03-1.17-1.48c.07-.07.15-.13.25-.19.1-.06.22-.11.35-.15.14-.04.29-.06.47-.06.47,0,.87.16,1.19.47s.57.71.76,1.21.32,1.02.41,1.57c.08.55.12,1.07.12,1.54,0,1.55-.36,2.77-1.07,3.64-.72.87-1.71,1.31-2.98,1.31h-1.36v-.02ZM156.58,45.96c-.31,0-.58-.12-.81-.35s-.34-.5-.34-.81.11-.6.34-.83.5-.35.81-.35.6.12.82.35.33.51.33.83-.11.58-.33.81-.5.35-.82.35ZM159.55,45.96c-.31,0-.58-.12-.81-.35s-.34-.5-.34-.81.11-.6.34-.83.5-.35.81-.35.6.12.82.35.34.51.34.83-.11.58-.34.81c-.22.23-.5.35-.82.35Z"/>
  <path class="st0" d="M162.46,57.01c-.22,0-.36-.08-.45-.24-.08-.16-.12-.32-.12-.47s.04-.3.12-.47c.08-.16.23-.24.45-.24h6.55c.42,0,.76-.12,1.02-.36.26-.24.46-.55.59-.91.13-.36.19-.74.19-1.12v-6.57c0-.42-.06-.8-.17-1.14-.12-.34-.26-.62-.44-.85-.18-.23-.35-.4-.51-.51.05-.07.14-.14.27-.22s.28-.15.47-.2c.18-.05.37-.08.58-.08.26,0,.51.06.76.19.25.13.46.35.62.68.16.32.24.78.24,1.38v7.32c0,.73-.16,1.38-.47,1.96-.31.58-.74,1.03-1.28,1.36s-1.17.5-1.89.5h-6.55.02ZM165.24,55.59v-6.1c0-.42-.06-.8-.17-1.13-.12-.34-.26-.62-.44-.85-.18-.23-.35-.4-.51-.51.05-.07.14-.14.27-.22s.28-.15.47-.2.37-.08.58-.08c.26,0,.51.06.76.19.25.13.46.35.62.68.16.32.24.78.24,1.38v6.85h-1.82ZM174.45,57.01c-.7,0-1.33-.17-1.88-.5s-.98-.78-1.29-1.36c-.31-.57-.47-1.23-.47-1.96h1.82c0,.38.06.75.19,1.12.13.36.33.67.6.91s.61.36,1.01.36h.73v1.42h-.73.02ZM175.18,57.01v-1.42c.16,0,.27.06.32.18s.08.3.08.53-.03.39-.08.52-.16.19-.32.19Z"/>
  <path class="st0" d="M175.17,57.01c-.16,0-.27-.06-.32-.19-.05-.13-.08-.3-.08-.52s.03-.41.08-.53.16-.18.32-.18v1.42ZM175.17,57.01v-1.42h.51c.42,0,.76-.12,1.02-.36.26-.24.46-.55.59-.91s.19-.74.19-1.12v-6.57c0-.42-.06-.8-.17-1.14s-.26-.62-.44-.85c-.18-.23-.34-.4-.51-.51.05-.07.15-.14.27-.22.13-.08.28-.15.47-.2s.38-.08.58-.08c.26,0,.51.06.76.19.25.13.46.35.62.68.16.32.24.78.24,1.38v7.32c0,.73-.16,1.38-.47,1.96-.31.58-.74,1.03-1.28,1.36s-1.17.5-1.89.5h-.51.02Z"/>
</svg>